<svg width="1434" height="1485" viewBox="0 0 1434 1485" fill="none" xmlns="http://www.w3.org/2000/svg">
<path fill-rule="evenodd" clip-rule="evenodd" d="M631.166 5.39753C594.689 9.26459 484.786 35.8747 440.12 51.664C420.308 58.6622 356.093 91.3421 287.22 129.479C239.141 156.094 184.389 196.612 160.32 223.38C138.37 247.793 80.7141 358.001 34.4382 463.997C8.66013 523.045 -1.72715 583.669 1.37965 656.926C5.33106 750.091 23.6656 900.639 37.293 951.81C61.3176 1042.04 115.121 1148.07 189.64 1252.05C276.768 1373.63 369.301 1444.27 481.392 1474.76C532.894 1488.78 691.603 1487.77 767.87 1472.94C797.752 1467.14 834.94 1459.96 850.509 1456.99C921.762 1443.43 1049.99 1390.07 1118.6 1345.44C1191.17 1298.23 1256.48 1236.62 1294.43 1179.57C1331.63 1123.63 1359.17 1082.88 1380.63 1052.03C1410.2 1009.51 1420.55 985.285 1429.64 937.349C1443.16 866.103 1425.74 765.574 1355.59 510.081C1339.76 452.411 1315.85 384.439 1301.26 355.586C1268.19 290.241 1191.55 214.94 1116.09 173.652C1021.01 121.632 964.611 98.8441 930.935 98.8441C831.423 98.8441 626.71 145.832 538.194 188.987C435.398 239.105 329.095 340.656 273.237 442.089C250.254 483.832 244.619 498.174 228.625 555.681C217.077 597.201 216.43 605.498 218.791 681.62C220.955 751.414 223.528 771.772 236.731 823.466C270.906 957.292 338.07 1073.55 433.946 1164.81C508.781 1236.05 586.52 1264.6 704.859 1264.3C766.141 1264.14 879.003 1250.87 909.834 1240.2C999.66 1209.11 1081.36 1141.34 1173.76 1021.26C1268.4 898.284 1277.72 721.816 1198.74 548.273C1161.32 466.037 1076.48 375.87 1000.09 337.16C943.559 308.51 911.123 301.146 840.808 301.003C766.991 300.855 731.828 307.651 670.374 333.945C549.905 385.491 473.341 468.141 433.585 589.551C417.868 637.546 417.182 642.84 417.182 716.191C417.182 781.269 418.911 798.94 428.705 834.104C466.51 969.812 538.085 1056.28 638.155 1087.13C689.508 1102.96 736.431 1104.46 785.197 1091.84C860.753 1072.28 917.337 1047.22 947.116 1020.12C961.924 1006.65 978.974 987.759 985.01 978.144C1013.21 933.226 1042 829.195 1042 772.236C1042 727.94 1028.01 672.221 1004.81 624.132C960.486 532.241 897.535 493.526 816.689 508.441C713.464 527.48 637.241 621.589 637.038 730.247C636.915 796.663 658.756 835.872 711.933 864.705C740.175 880.015 747.001 881.64 783.048 881.64C818.043 881.64 825.378 880.015 842.956 868.384C867.371 852.23 884.896 818.542 887.928 781.921C890.546 750.362 883.058 729.511 860.95 706.812C834.288 679.432 832.377 636.568 857.394 627.056C865.88 623.831 876.889 624.014 890.596 627.599C946.913 642.337 973.625 682.963 976.949 758.931C981.251 857.307 948.173 930.978 878.944 977.2C802.395 1028.31 711.048 1023.49 622.966 963.673C584.519 937.572 561.626 910.221 537.764 861.885C513.774 813.292 503.797 767.643 503.762 706.314C503.723 634.874 518.452 588.672 551.713 555.913C589.429 518.763 704.425 449.038 792.566 409.873C836.693 390.261 845.905 387.921 879.003 387.891C909.711 387.866 920.547 390.173 942.349 401.379C1005.75 433.955 1056.63 477.327 1091.27 528.34C1170.05 644.342 1175.8 832.149 1104.47 959.683C1023.96 1103.63 853.171 1205.22 711.463 1193.45C589.883 1183.35 440.614 1114.58 413.571 1056.21C324.398 863.702 285.407 741.468 284.632 651.987C284.103 591.245 294.589 554.654 325.514 509.306C348.091 476.201 358.108 465.474 400.043 429.475C514.841 330.937 659.937 241.175 742.684 217.513C906.619 170.639 1061.9 215.641 1188.04 346.583C1220.75 380.532 1259.8 429.48 1272.12 451.967C1275.1 457.399 1284.6 474.754 1293.23 490.533C1394.09 675.002 1374.27 969.511 1249.63 1138.21C1154.19 1267.39 960.876 1373.6 776.365 1398.23C638.036 1416.69 496.2 1367.82 350.502 1251.5C306.794 1216.61 212.202 1115.72 212.202 1104C212.202 1102.22 206.888 1093.68 200.393 1085.03C183.041 1061.93 156.132 1006.04 139.323 958.191C78.2 784.178 79.341 585.457 142.406 422.334C194.895 286.552 300.008 185.554 481.392 96.6068C546.319 64.7715 568.906 55.6397 649.327 28.7036C673.777 20.5102 700.449 10.8598 708.599 7.25451C723.12 0.829164 722.878 0.705695 696.25 1.04153C681.309 1.2292 652.019 3.1899 631.166 5.39753Z" fill="url(#paint0_linear_2_28)"/>
<defs>
<linearGradient id="paint0_linear_2_28" x1="103.539" y1="1550.84" x2="1481.45" y2="123.401" gradientUnits="userSpaceOnUse">
<stop stop-color="#0C2233"/>
<stop offset="1" stop-color="#0A91AB"/>
</linearGradient>
</defs>
</svg>
