<svg width="1434" height="1485" viewBox="0 0 1434 1485" fill="none" xmlns="http://www.w3.org/2000/svg">
<path fill-rule="evenodd" clip-rule="evenodd" d="M803.536 1479.82C840.012 1475.95 949.916 1449.34 994.582 1433.55C1014.39 1426.55 1078.61 1393.87 1147.48 1355.74C1195.56 1329.12 1250.31 1288.6 1274.38 1261.84C1296.33 1237.42 1353.99 1127.22 1400.26 1021.22C1426.04 962.171 1436.43 901.548 1433.32 828.291C1429.37 735.126 1411.04 584.577 1397.41 533.406C1373.38 443.18 1319.58 337.149 1245.06 233.168C1157.93 111.585 1065.4 40.9511 953.309 10.4542C901.807 -3.56205 743.099 -2.55447 666.831 12.2717C636.949 18.0797 599.761 25.2557 584.193 28.2239C512.939 41.7907 384.71 95.1493 316.099 139.781C243.527 186.991 178.22 248.597 140.276 305.645C103.069 361.591 75.5272 402.341 54.076 433.189C24.5046 475.707 14.152 499.931 5.05878 547.867C-8.45998 619.114 8.96084 719.643 79.1083 975.135C94.9387 1032.81 118.85 1100.78 133.445 1129.63C166.513 1194.98 243.151 1270.28 318.613 1311.56C413.694 1363.58 470.091 1386.37 503.767 1386.37C603.278 1386.37 807.991 1339.38 896.507 1296.23C999.303 1246.11 1105.61 1144.56 1161.46 1043.13C1184.45 1001.38 1190.08 987.043 1206.08 929.536C1217.62 888.015 1218.27 879.718 1215.91 803.597C1213.75 733.802 1211.17 713.444 1197.97 661.75C1163.8 527.924 1096.63 411.67 1000.76 320.402C925.921 249.165 848.182 220.619 729.842 220.92C668.56 221.073 555.698 234.344 524.867 245.016C435.042 276.111 353.341 343.881 260.937 463.957C166.301 586.933 156.981 763.4 235.96 936.944C273.385 1019.18 358.226 1109.35 434.612 1148.06C491.142 1176.71 523.578 1184.07 593.893 1184.21C667.711 1184.36 702.873 1177.57 764.328 1151.27C884.796 1099.73 961.36 1017.08 1001.12 895.666C1016.83 847.671 1017.52 842.376 1017.52 769.025C1017.52 703.947 1015.79 686.276 1006 651.112C968.191 515.404 896.616 428.941 796.547 398.089C745.193 382.26 698.27 380.754 649.505 393.377C573.949 412.935 517.364 437.994 487.586 465.093C472.778 478.566 455.727 497.457 449.691 507.073C421.493 551.991 392.702 656.021 392.702 712.98C392.702 757.276 406.69 812.995 429.89 861.084C474.215 952.975 537.166 991.69 618.012 976.775C721.238 957.736 797.46 863.628 797.663 754.97C797.786 688.553 775.945 649.344 722.769 620.512C694.526 605.201 687.7 603.576 651.653 603.576C616.659 603.576 609.324 605.201 591.745 616.832C567.33 632.987 549.805 666.674 546.773 703.295C544.155 734.854 551.643 755.706 573.751 778.404C600.413 805.785 602.325 848.648 577.307 858.161C568.822 861.386 557.812 861.203 544.106 857.617C487.788 842.88 461.077 802.254 457.752 726.285C453.45 627.91 486.529 554.238 555.757 508.016C632.306 456.905 723.653 461.73 811.735 521.543C850.182 547.645 873.075 574.996 896.937 623.332C920.927 671.924 930.904 717.573 930.939 778.903C930.979 850.342 916.25 896.545 882.989 929.304C845.272 966.453 730.276 1036.18 642.135 1075.34C598.008 1094.96 588.796 1097.3 555.698 1097.33C524.991 1097.35 514.154 1095.04 492.352 1083.84C428.952 1051.26 378.072 1007.89 343.428 956.877C264.647 840.875 258.903 653.068 330.23 525.534C410.74 381.583 581.53 279.998 723.238 291.767C844.818 301.867 994.088 370.639 1021.13 429.01C1110.3 621.514 1149.29 743.749 1150.07 833.229C1150.6 893.971 1140.11 930.563 1109.19 975.911C1086.61 1009.02 1076.59 1019.74 1034.66 1055.74C919.86 1154.28 774.764 1244.04 692.017 1267.7C528.083 1314.58 372.802 1269.58 246.658 1138.63C213.955 1104.68 174.9 1055.74 162.577 1033.25C159.599 1027.82 150.1 1010.46 141.471 994.683C40.6066 810.215 60.433 515.706 185.07 347.007C280.512 217.829 473.825 111.62 658.336 86.9905C796.665 68.5293 938.501 117.398 1084.2 233.716C1127.91 268.609 1222.5 369.493 1222.5 381.213C1222.5 383.001 1227.81 391.535 1234.31 400.183C1251.66 423.286 1278.57 479.174 1295.38 527.025C1356.5 701.038 1355.36 899.76 1292.3 1062.88C1239.81 1198.66 1134.69 1299.66 953.309 1388.61C888.382 1420.44 865.795 1429.58 785.374 1456.51C760.925 1464.71 734.253 1474.36 726.103 1477.96C711.581 1484.39 711.823 1484.51 738.451 1484.17C753.392 1483.99 782.682 1482.03 803.536 1479.82Z" fill="url(#paint0_linear_4_30)"/>
<defs>
<linearGradient id="paint0_linear_4_30" x1="1331.16" y1="-65.6277" x2="-46.7508" y2="1361.82" gradientUnits="userSpaceOnUse">
<stop stop-color="#0A91AB"/>
<stop offset="1" stop-color="#FFC045"/>
</linearGradient>
</defs>
</svg>
